<svg xmlns="http://www.w3.org/2000/svg" width="24.021" height="24.021" viewBox="0 0 24.021 24.021">
  <g id="Layer_1" data-name="Layer 1" transform="translate(-160 -182.15)">
    <line id="Line_2206" data-name="Line 2206" x2="2.542" y2="0.017" transform="translate(167.899 191.767)" fill="none"/>
    <path id="Path_20729" data-name="Path 20729" d="M172.011,182.15a11.943,11.943,0,0,0-9.637,4.876v-1.751a.751.751,0,0,0-1.5,0v3.661a.751.751,0,0,0,.751.751h3.66a.751.751,0,1,0,0-1.5h-1.9a10.487,10.487,0,1,1-1.885,5.976.751.751,0,1,0-1.5,0,12.011,12.011,0,1,0,12.011-12.011Z" transform="translate(0)" fill="#333"/>
    <path id="Path_20730" data-name="Path 20730" d="M410.583,342.509c-1.126,0-2.081-.7-2.081-1.539a.751.751,0,1,0-1.5,0,3.212,3.212,0,0,0,2.836,2.972c0,.009-.005.016-.005.025v.827a.751.751,0,0,0,1.5,0v-.827c0-.009,0-.016-.005-.025a3.213,3.213,0,0,0,2.838-2.972,3.349,3.349,0,0,0-3.583-3.042c-1.126,0-2.081-.705-2.081-1.54s.953-1.541,2.081-1.541,2.081.705,2.081,1.541a.751.751,0,0,0,1.5,0,3.217,3.217,0,0,0-2.852-2.978.7.7,0,0,0,.021-.1v-.827a.751.751,0,0,0-1.5,0v.825a.7.7,0,0,0,.021.1A3.222,3.222,0,0,0,407,336.388a3.348,3.348,0,0,0,3.583,3.041c1.126,0,2.081.705,2.081,1.541S411.709,342.509,410.583,342.509Z" transform="translate(-238.572 -144.476)" fill="#333"/>
  </g>
</svg>
