<svg width="24" height="24" viewBox="0 0 24 24" fill="none" xmlns="http://www.w3.org/2000/svg">
<path fill-rule="evenodd" clip-rule="evenodd" d="M12.2899 6.04642C12.4665 5.9645 12.6746 5.99256 12.8233 6.11831L19.3233 11.6183C19.4355 11.7133 19.5003 11.8529 19.5003 12C19.5003 12.1471 19.4355 12.2867 19.3233 12.3817L12.8233 17.8817C12.6746 18.0075 12.4665 18.0355 12.2899 17.9536C12.1133 17.8717 12.0003 17.6947 12.0003 17.5V14.4465C8.99161 14.1984 6.80309 15.9667 5.42906 18.2572C5.32128 18.4369 5.1129 18.5303 4.90705 18.4912C4.7012 18.4522 4.54154 18.2889 4.5071 18.0822C4.23559 16.4533 4.6403 14.1953 5.90375 12.3998C7.11427 10.6795 9.10905 9.39239 12.0003 9.47158V6.50001C12.0003 6.30532 12.1133 6.12833 12.2899 6.04642ZM13.0003 7.57806V10C13.0003 10.1398 12.9417 10.2733 12.8388 10.3679C12.736 10.4626 12.5981 10.5099 12.4588 10.4983C9.64384 10.2637 7.81182 11.4259 6.72157 12.9752C5.95873 14.0593 5.55687 15.3377 5.45371 16.4763C7.06182 14.4858 9.4355 13.0571 12.571 13.505C12.8173 13.5402 13.0003 13.7512 13.0003 14V16.422L18.2262 12L13.0003 7.57806Z" fill="#333333"/>
</svg>
