<svg width="30" height="30" viewBox="0 0 30 30" fill="none" xmlns="http://www.w3.org/2000/svg">
<path fill-rule="evenodd" clip-rule="evenodd" d="M22.9994 10.4828C24.6563 10.4828 25.9994 9.13964 25.9994 7.48279C25.9994 5.82593 24.6563 4.48279 22.9994 4.48279C21.3425 4.48279 19.9994 5.82593 19.9994 7.48279C19.9994 9.13964 21.3425 10.4828 22.9994 10.4828ZM21.9994 7.48279C21.9994 6.9305 22.4471 6.48279 22.9994 6.48279C23.5517 6.48279 23.9994 6.9305 23.9994 7.48279C23.9994 8.03507 23.5517 8.48279 22.9994 8.48279C22.4471 8.48279 21.9994 8.03507 21.9994 7.48279Z" fill="#333333"/>
<path fill-rule="evenodd" clip-rule="evenodd" d="M18.6563 0.482788C17.3302 0.482788 16.0584 1.00957 15.1207 1.94725L2.12072 14.9473C0.168095 16.8999 0.168094 20.0657 2.12072 22.0183L8.46386 28.3615C10.4165 30.3141 13.5823 30.3141 15.5349 28.3615L28.5349 15.3615C29.4726 14.4238 29.9994 13.152 29.9994 11.8259V3.48279C29.9994 1.82593 28.6563 0.482788 26.9994 0.482788H18.6563ZM16.5349 3.36147C17.0975 2.79886 17.8606 2.48279 18.6563 2.48279H26.9994C27.5517 2.48279 27.9994 2.9305 27.9994 3.48279V11.8259C27.9994 12.6216 27.6833 13.3846 27.1207 13.9473L14.1207 26.9473C12.9491 28.1188 11.0496 28.1188 9.87808 26.9473L3.53493 20.6041C2.36336 19.4325 2.36336 17.533 3.53493 16.3615L16.5349 3.36147Z" fill="#333333"/>
</svg>
