<svg class="MuiSvgIcon-root MuiSvgIcon-fontSizeInherit base-MuiOriSocialIcon-icon frontpage-foevli" focusable="false" aria-hidden="true" viewBox="0 0 24 24" data-testid="InstagramRingIcon" xmlns="http://www.w3.org/2000/svg" xmlns:xlink="http://www.w3.org/1999/xlink"><path fill="#F00075" d="M16.421 8.655c-.103-.265-.226-.454-.424-.652s-.387-.321-.652-.424c-.2-.078-.5-.17-1.053-.195-.598-.027-.777-.033-2.292-.033s-1.694.006-2.292.033c-.553.025-.853.118-1.053.195-.265.103-.454.226-.652.424s-.321.387-.424.652c-.078.2-.17.5-.195 1.053-.027.598-.033.777-.033 2.292s.006 1.694.033 2.292c.025.553.118.853.195 1.053.103.265.226.454.424.652s.387.321.652.424c.2.078.5.17 1.053.195.598.027.777.033 2.292.033s1.694-.006 2.292-.033c.553-.025.853-.118 1.053-.195.265-.103.454-.226.652-.424s.321-.387.424-.652c.078-.2.17-.5.195-1.053.027-.598.033-.777.033-2.292s-.006-1.694-.033-2.292c-.025-.553-.118-.853-.195-1.053M12 14.913a2.913 2.913 0 1 1 0-5.827 2.913 2.913 0 0 1 0 5.827m3.028-5.26a.681.681 0 1 1 0-1.362.681.681 0 0 1 0 1.362"></path><path fill="#F00075" d="M13.891 12a1.89 1.89 0 1 1-3.782 0 1.89 1.89 0 0 1 3.782 0"></path><path fill="#F00075" d="M12 3.75a8.25 8.25 0 1 0 0 16.5 8.25 8.25 0 0 0 0-16.5m5.638 10.588c-.027.604-.123 1.016-.263 1.377-.145.373-.339.689-.654 1.005s-.632.509-1.005.654c-.361.14-.773.236-1.377.264s-.798.034-2.338.034-1.733-.007-2.338-.034c-.604-.027-1.016-.123-1.377-.264-.373-.145-.689-.339-1.005-.654s-.509-.632-.654-1.005c-.14-.361-.236-.773-.264-1.377S6.329 13.54 6.329 12s.007-1.734.034-2.338.123-1.016.264-1.377c.145-.373.339-.689.654-1.005s.632-.509 1.005-.654c.361-.14.773-.236 1.377-.264s.798-.034 2.338-.034 1.734.007 2.338.034 1.016.123 1.377.264c.373.145.689.339 1.005.654s.509.632.654 1.005c.14.361.236.773.263 1.377s.034.798.034 2.338-.007 1.734-.034 2.338"></path></svg>